<svg xmlns="http://www.w3.org/2000/svg" viewBox="0 0 600 900"><defs><linearGradient id="b" x2="1" y2="1"><stop stop-color="#4fe7ff"/><stop offset="1" stop-color="#22436d"/></linearGradient></defs><rect width="600" height="900" fill="#10151b"/><circle cx="470" cy="210" r="250" fill="url(#b)" opacity=".62"/><path d="M70 900c35-222 128-306 230-306s195 84 230 306" fill="#17283d"/><circle cx="300" cy="365" r="145" fill="#9a694e"/><path d="M167 336c9-144 87-198 171-186 73 10 111 68 104 145-61-3-114-32-145-86-34 67-75 105-130 127z" fill="#101419"/><circle cx="250" cy="377" r="10"/><circle cx="354" cy="377" r="10"/><path d="M262 450q42 27 82 0" fill="none" stroke="#573128" stroke-width="9" stroke-linecap="round"/></svg>
